<svg width="32" height="32" viewBox="0 0 32 32" fill="none" xmlns="http://www.w3.org/2000/svg">
  <!-- Background gradient -->
  <rect width="32" height="32" rx="8" fill="url(#paint0_linear)" />
  
  <!-- RH Monogram -->
  <path d="M9 10H14C15.1046 10 16 10.8954 16 12V14C16 15.1046 15.1046 16 14 16H10V22H9V10Z" fill="white"/>
  <path d="M10 11V15H14C14.5523 15 15 14.5523 15 14V12C15 11.4477 14.5523 11 14 11H10Z" fill="url(#paint1_linear)"/>
  
  <path d="M17 10H18V15H21V16H18V22H17V10Z" fill="white"/>
  <path d="M23 10H18V15H21V16H18L21 22H23L19.5 16H23V10Z" fill="white"/>
  <path d="M23 11H19V14H23V11Z" fill="url(#paint1_linear)"/>
  
  <!-- Decorative elements -->
  <path d="M7 18H9V19H7V18Z" fill="#5EEAD4" />
  <path d="M25 18H27V19H25V18Z" fill="#5EEAD4" />
  <path d="M7 22H9V23H7V22Z" fill="#5EEAD4" />
  <path d="M25 22H27V23H25V22Z" fill="#5EEAD4" />
  
  <!-- Gradient definitions -->
  <defs>
    <linearGradient id="paint0_linear" x1="0" y1="0" x2="32" y2="32" gradientUnits="userSpaceOnUse">
      <stop stop-color="#0F172A" />
      <stop offset="1" stop-color="#1E293B" />
    </linearGradient>
    <linearGradient id="paint1_linear" x1="10" y1="11" x2="23" y2="14" gradientUnits="userSpaceOnUse">
      <stop stop-color="#5EEAD4" />
      <stop offset="1" stop-color="#2DD4BF" />
    </linearGradient>
  </defs>
</svg> 